PathFileType	4	(X/Y/Z)	C:\Users\italobelli\Desktop\GitHub\PTbot_officialCBL\Personal_Results\FLX21_noisy2.trc
DataRate	CameraRate	NumFrames	NumMarkers	Units	OrigDataRate	OrigDataStartFrame	OrigNumFrames
107.000000	107.000000	17	9	m	107.000000	657	750
Frame#	Time		gu		centelbow		EpL		centpxt8		centijc7		ij		ts		aa		ai
			X1	Y1	Z1	X2	Y2	Z2	X3	Y3	Z3	X4	Y4	Z4	X5	Y5	Z5	X6	Y6	Z6	X7	Y7	Z7	X8	Y8	Z8	X9	Y9	Z9

657	6.1308	-0.076457	-0.016574	0.16256	-0.14485	-0.25728	0.19208	-0.1295	-0.25544	0.22041	-0.046816	-0.15316	-0.008669	-0.046816	0.031938	-0.008669	0	0	0	-0.13149	0.03238	0.052165	-0.10186	0.020317	0.16697	-0.15291	-0.079103	0.051392
658	6.1402	-0.076527	-0.0166	0.16258	-0.14468	-0.25731	0.1919	-0.12934	-0.25546	0.22024	-0.046816	-0.15316	-0.008669	-0.046816	0.031938	-0.008669	0	0	0	-0.13152	0.032347	0.052171	-0.10192	0.020282	0.16699	-0.15292	-0.079139	0.051387
659	6.1495	-0.076597	-0.016627	0.16259	-0.14451	-0.25735	0.19173	-0.12917	-0.25549	0.22006	-0.046816	-0.15316	-0.008669	-0.046816	0.031938	-0.008669	0	0	0	-0.13154	0.032313	0.052177	-0.10197	0.020247	0.167	-0.15292	-0.079177	0.051382
660	6.1589	-0.076665	-0.016655	0.16261	-0.14434	-0.25739	0.19155	-0.129	-0.25552	0.21989	-0.046816	-0.15316	-0.008669	-0.046816	0.031938	-0.008669	0	0	0	-0.13156	0.032278	0.052184	-0.10203	0.02021	0.16702	-0.15293	-0.079214	0.051377
661	6.1682	-0.076733	-0.016683	0.16262	-0.14416	-0.25743	0.19137	-0.12883	-0.25554	0.21971	-0.046816	-0.15316	-0.008669	-0.046816	0.031938	-0.008669	0	0	0	-0.13159	0.032243	0.052191	-0.10209	0.020172	0.16703	-0.15294	-0.079253	0.051372
662	6.1776	-0.0768	-0.016712	0.16264	-0.14398	-0.25747	0.19119	-0.12866	-0.25557	0.21953	-0.046816	-0.15316	-0.008669	-0.046816	0.031938	-0.008669	0	0	0	-0.13161	0.032207	0.052198	-0.10214	0.020133	0.16705	-0.15294	-0.079291	0.051367
663	6.1869	-0.076867	-0.016742	0.16266	-0.1438	-0.25751	0.19101	-0.12849	-0.2556	0.21935	-0.046816	-0.15316	-0.008669	-0.046816	0.031938	-0.008669	0	0	0	-0.13163	0.03217	0.052205	-0.1022	0.020093	0.16706	-0.15295	-0.079331	0.051362
664	6.1963	-0.076932	-0.016772	0.16267	-0.14362	-0.25756	0.19082	-0.12831	-0.25563	0.21917	-0.046816	-0.15316	-0.008669	-0.046816	0.031938	-0.008669	0	0	0	-0.13165	0.032133	0.052212	-0.10225	0.020052	0.16708	-0.15295	-0.07937	0.051357
665	6.2056	-0.076996	-0.016803	0.16269	-0.14344	-0.2576	0.19064	-0.12813	-0.25566	0.21899	-0.046816	-0.15316	-0.008669	-0.046816	0.031938	-0.008669	0	0	0	-0.13168	0.032096	0.05222	-0.1023	0.020011	0.1671	-0.15296	-0.07941	0.051352
666	6.215	-0.07706	-0.016834	0.16271	-0.14325	-0.25764	0.19045	-0.12795	-0.25569	0.21881	-0.046816	-0.15316	-0.008669	-0.046816	0.031938	-0.008669	0	0	0	-0.1317	0.032059	0.052227	-0.10236	0.019969	0.16711	-0.15296	-0.07945	0.051347
667	6.2243	-0.077122	-0.016866	0.16272	-0.14307	-0.25769	0.19027	-0.12778	-0.25572	0.21862	-0.046816	-0.15316	-0.008669	-0.046816	0.031938	-0.008669	0	0	0	-0.13172	0.032021	0.052235	-0.10241	0.019926	0.16713	-0.15297	-0.07949	0.051342
668	6.2336	-0.077183	-0.016897	0.16274	-0.14288	-0.25774	0.19008	-0.1276	-0.25575	0.21844	-0.046816	-0.15316	-0.008669	-0.046816	0.031938	-0.008669	0	0	0	-0.13174	0.031983	0.052243	-0.10246	0.019883	0.16715	-0.15298	-0.079531	0.051338
669	6.243	-0.077243	-0.016929	0.16276	-0.1427	-0.25778	0.1899	-0.12742	-0.25578	0.21826	-0.046816	-0.15316	-0.008669	-0.046816	0.031938	-0.008669	0	0	0	-0.13176	0.031945	0.052251	-0.1025	0.01984	0.16717	-0.15298	-0.079571	0.051333
670	6.2523	-0.077303	-0.016961	0.16277	-0.14251	-0.25783	0.18971	-0.12724	-0.25581	0.21807	-0.046816	-0.15316	-0.008669	-0.046816	0.031938	-0.008669	0	0	0	-0.13178	0.031906	0.052259	-0.10255	0.019796	0.16718	-0.15299	-0.079612	0.051329
671	6.2617	-0.077361	-0.016993	0.16279	-0.14233	-0.25788	0.18952	-0.12706	-0.25585	0.21789	-0.046816	-0.15316	-0.008669	-0.046816	0.031938	-0.008669	0	0	0	-0.1318	0.031868	0.052267	-0.1026	0.019752	0.1672	-0.15299	-0.079652	0.051324
672	6.271	-0.077417	-0.017025	0.16281	-0.14214	-0.25792	0.18934	-0.12689	-0.25588	0.2177	-0.046816	-0.15316	-0.008669	-0.046816	0.031938	-0.008669	0	0	0	-0.13182	0.03183	0.052275	-0.10264	0.019709	0.16722	-0.153	-0.079693	0.05132
673	6.2804	-0.077473	-0.017057	0.16282	-0.14196	-0.25797	0.18915	-0.12671	-0.2559	0.21752	-0.046816	-0.15316	-0.008669	-0.046816	0.031938	-0.008669	0	0	0	-0.13184	0.031792	0.052284	-0.10269	0.019665	0.16724	-0.153	-0.079733	0.051316
